<svg xmlns="http://www.w3.org/2000/svg" width="24" height="25" viewBox="0 0 24 25" fill="none">
  <path fill-rule="evenodd" clip-rule="evenodd" d="M14.2307 8.66963C15.9089 10.4271 15.8448 13.2122 14.0874 14.8905C12.3299 16.5688 9.54476 16.5046 7.86647 14.7472C6.18819 12.9898 6.25235 10.2046 8.00977 8.52634C9.76719 6.84806 12.5524 6.91221 14.2307 8.66963ZM16.013 15.7486C18.0243 13.2835 17.9311 9.64868 15.6771 7.28836C13.2359 4.73211 9.18475 4.6388 6.6285 7.07993C4.07225 9.52107 3.97893 13.5722 6.42007 16.1285C8.67409 18.4888 12.3008 18.7493 14.8559 16.8536L16.5476 18.6251C16.8527 18.9447 17.3591 18.9563 17.6787 18.6512C17.9982 18.346 18.0099 17.8397 17.7047 17.5201L16.013 15.7486Z" fill="#B2B2B2"/>
</svg>